<svg width="300" height="300" viewBox="0 0 300 300" fill="none" xmlns="http://www.w3.org/2000/svg">
  <rect width="300" height="300" rx="28" fill="#FCF8F2"/>
  <rect x="22" y="22" width="256" height="256" rx="18" fill="#2F4A38"/>
  <rect x="42" y="42" width="48" height="48" fill="#FCF8F2"/>
  <rect x="54" y="54" width="24" height="24" fill="#2F4A38"/>
  <rect x="210" y="42" width="48" height="48" fill="#FCF8F2"/>
  <rect x="222" y="54" width="24" height="24" fill="#2F4A38"/>
  <rect x="42" y="210" width="48" height="48" fill="#FCF8F2"/>
  <rect x="54" y="222" width="24" height="24" fill="#2F4A38"/>
  <rect x="116" y="52" width="18" height="18" fill="#FCF8F2"/>
  <rect x="148" y="52" width="18" height="18" fill="#FCF8F2"/>
  <rect x="182" y="52" width="18" height="18" fill="#FCF8F2"/>
  <rect x="116" y="84" width="18" height="18" fill="#FCF8F2"/>
  <rect x="148" y="84" width="18" height="18" fill="#FCF8F2"/>
  <rect x="116" y="116" width="18" height="18" fill="#FCF8F2"/>
  <rect x="182" y="116" width="18" height="18" fill="#FCF8F2"/>
  <rect x="84" y="116" width="18" height="18" fill="#FCF8F2"/>
  <rect x="52" y="116" width="18" height="18" fill="#FCF8F2"/>
  <rect x="148" y="148" width="18" height="18" fill="#FCF8F2"/>
  <rect x="180" y="148" width="18" height="18" fill="#FCF8F2"/>
  <rect x="212" y="148" width="18" height="18" fill="#FCF8F2"/>
  <rect x="84" y="148" width="18" height="18" fill="#FCF8F2"/>
  <rect x="116" y="180" width="18" height="18" fill="#FCF8F2"/>
  <rect x="148" y="180" width="18" height="18" fill="#FCF8F2"/>
  <rect x="212" y="180" width="18" height="18" fill="#FCF8F2"/>
  <rect x="244" y="116" width="18" height="18" fill="#FCF8F2"/>
  <rect x="244" y="148" width="18" height="18" fill="#FCF8F2"/>
  <rect x="116" y="212" width="18" height="18" fill="#FCF8F2"/>
  <rect x="148" y="212" width="18" height="18" fill="#FCF8F2"/>
  <rect x="180" y="212" width="18" height="18" fill="#FCF8F2"/>
  <rect x="212" y="212" width="18" height="18" fill="#FCF8F2"/>
  <text x="150" y="287" text-anchor="middle" fill="#FCF8F2" font-family="Arial, sans-serif" font-size="20">QRIS SAMPLE</text>
</svg>
