<svg width="520" height="620" viewBox="0 0 520 620" fill="none" xmlns="http://www.w3.org/2000/svg">
  <rect width="520" height="620" rx="36" fill="#F7EFE3"/>
  <rect x="26" y="26" width="468" height="568" rx="28" fill="url(#paint0_linear)"/>
  <circle cx="151" cy="244" r="84" fill="#F2D1C4"/>
  <circle cx="343" cy="220" r="88" fill="#D9B9A7"/>
  <path d="M90 420C90 352.621 144.621 298 212 298H222C289.379 298 344 352.621 344 420V500H90V420Z" fill="#2F4A38"/>
  <path d="M230 410C230 347.039 281.039 296 344 296H346C408.961 296 460 347.039 460 410V500H230V410Z" fill="#6A7E66"/>
  <path d="M148 492C172.667 461.333 199.333 446 228 446C256.667 446 291 461.333 331 492" stroke="#DFC49B" stroke-width="10" stroke-linecap="round"/>
  <path d="M122 142C151.333 103.333 190.667 84 240 84C289.333 84 330 103.333 362 142" stroke="#B56D4F" stroke-width="8" stroke-linecap="round"/>
  <defs>
    <linearGradient id="paint0_linear" x1="61" y1="50" x2="447" y2="587" gradientUnits="userSpaceOnUse">
      <stop stop-color="#E4D3B3"/>
      <stop offset="1" stop-color="#F7EFE3"/>
    </linearGradient>
  </defs>
</svg>
