<svg width="540" height="420" viewBox="0 0 540 420" fill="none" xmlns="http://www.w3.org/2000/svg">
  <rect width="540" height="420" fill="#EEE0D0"/>
  <rect x="20" y="20" width="500" height="380" rx="28" fill="url(#paint0_linear)"/>
  <path d="M88 302C129.333 255.333 172 232 216 232C260 232 303.333 255.333 346 302" stroke="#2F4A38" stroke-width="18" stroke-linecap="round"/>
  <path d="M218 116C253.333 76 290.667 56 330 56C369.333 56 407.333 76 444 116" stroke="#B56D4F" stroke-width="8" stroke-linecap="round"/>
  <circle cx="194" cy="166" r="56" fill="#E3BEAB"/>
  <circle cx="326" cy="160" r="54" fill="#D0AD99"/>
  <path d="M148 350C148 289.249 197.249 240 258 240H266C326.751 240 376 289.249 376 350V350H148Z" fill="#617562"/>
  <defs>
    <linearGradient id="paint0_linear" x1="58" y1="31" x2="488" y2="383" gradientUnits="userSpaceOnUse">
      <stop stop-color="#DBC5A6"/>
      <stop offset="1" stop-color="#F8F0E6"/>
    </linearGradient>
  </defs>
</svg>
